M48
; DRILL file {KiCad 8.0.6} date 2024-11-22T11:55:04-0400
; FORMAT={-:-/ absolute / inch / decimal}
; #@! TF.CreationDate,2024-11-22T11:55:04-04:00
; #@! TF.GenerationSoftware,Kicad,Pcbnew,8.0.6
; #@! TF.FileFunction,Plated,1,2,PTH
FMAT,2
INCH
; #@! TA.AperFunction,Plated,PTH,ViaDrill
T1C0.0118
; #@! TA.AperFunction,Plated,PTH,ComponentDrill
T2C0.0118
; #@! TA.AperFunction,Plated,PTH,ComponentDrill
T3C0.1260
%
G90
G05
T1
X5.4799Y-2.8425
X5.7047Y-3.4232
X5.7362Y-3.0217
X5.7559Y-2.9941
X5.7933Y-2.8445
X5.7992Y-3.372
X5.8366Y-3.3976
X5.874Y-3.3445
X5.9154Y-3.7776
X5.935Y-3.3445
X6.0453Y-2.8386
X6.0843Y-2.9961
X6.1043Y-3.122
X6.1358Y-3.4646
X6.1654Y-3.2185
X6.1673Y-3.2677
X6.1673Y-3.2992
X6.1693Y-3.4232
X6.2618Y-4.0256
X6.3071Y-2.9961
X6.3854Y-2.8268
X6.4724Y-3.7461
X6.4744Y-3.872
X6.4766Y-3.7773
X6.4849Y-3.2658
X6.486Y-3.2973
X6.5035Y-2.8268
X6.5035Y-3.1516
X6.5453Y-2.8268
X6.5453Y-3.1197
X6.5512Y-3.3976
X6.5787Y-3.372
X6.598Y-2.8268
X6.6476Y-3.874
X6.6811Y-3.7461
X6.7106Y-3.874
X6.713Y-3.1516
T2
X4.9346Y-2.5573
X4.9618Y-2.4919
X4.9618Y-2.6226
X5.0272Y-2.4648
X5.0272Y-2.6498
X5.0925Y-2.4919
X5.0925Y-2.6226
X5.1197Y-2.5573
X6.9031Y-2.5573
X6.9303Y-2.4919
X6.9303Y-2.6226
X6.9957Y-2.4652
X6.9957Y-2.6502
X7.061Y-2.4919
X7.061Y-2.6226
X7.0882Y-2.5573
T3
X5.0272Y-2.5573
X6.9957Y-2.5573
M30
